<?xml version="1.0" encoding="utf-8" standalone="no"?>
<!DOCTYPE svg PUBLIC "-//W3C//DTD SVG 1.1//EN"
  "http://www.w3.org/Graphics/SVG/1.1/DTD/svg11.dtd">
<svg xmlns:xlink="http://www.w3.org/1999/xlink" width="629.439509pt" height="564.556484pt" viewBox="0 0 629.439509 564.556484" xmlns="http://www.w3.org/2000/svg" version="1.1">
 <metadata>
  <rdf:RDF xmlns:dc="http://purl.org/dc/elements/1.1/" xmlns:cc="http://creativecommons.org/ns#" xmlns:rdf="http://www.w3.org/1999/02/22-rdf-syntax-ns#">
   <cc:Work>
    <dc:type rdf:resource="http://purl.org/dc/dcmitype/StillImage"/>
    <dc:date>2026-09-17T18:45:31.279217</dc:date>
    <dc:format>image/svg+xml</dc:format>
    <dc:creator>
     <cc:Agent>
      <dc:title>Matplotlib v3.11.2, https://matplotlib.org/</dc:title>
     </cc:Agent>
    </dc:creator>
   </cc:Work>
  </rdf:RDF>
 </metadata>
 <defs>
  <style type="text/css">*{stroke-linejoin: round; stroke-linecap: butt}</style>
 </defs>
 <g id="figure_1">
  <g id="patch_1">
   <path d="M 0 564.556484 
L 629.439509 564.556484 
L 629.439509 0 
L 0 0 
z
" style="fill: #ffffff"/>
  </g>
  <g id="axes_1">
   <g id="line2d_1">
    <path d="M 336.62664 46.63805 
L 490.657436 127.358028 
" clip-path="url(#pb872c4aa20)" style="fill: none; stroke: #7a4b2a; stroke-opacity: 0.281051; stroke-width: 1.143312; stroke-linecap: square"/>
   </g>
   <g id="line2d_2">
    <path d="M 574.804285 241.68528 
L 54.308967 159.426716 
" clip-path="url(#pb872c4aa20)" style="fill: none; stroke: #7a4b2a; stroke-opacity: 0.9; stroke-width: 4; stroke-linecap: square"/>
   </g>
   <g id="line2d_3">
    <path d="M 574.804285 241.68528 
L 490.657436 127.358028 
" clip-path="url(#pb872c4aa20)" style="fill: none; stroke: #7a4b2a; stroke-opacity: 0.405455; stroke-width: 1.717485; stroke-linecap: square"/>
   </g>
   <g id="line2d_4">
    <path d="M 574.804285 241.68528 
L 153.513198 520.497965 
" clip-path="url(#pb872c4aa20)" style="fill: none; stroke: #7a4b2a; stroke-opacity: 0.35117; stroke-width: 1.466937; stroke-linecap: square"/>
   </g>
   <g id="line2d_5">
    <path d="M 574.804285 241.68528 
L 472.229101 504.013437 
" clip-path="url(#pb872c4aa20)" style="fill: none; stroke: #7a4b2a; stroke-opacity: 0.281051; stroke-width: 1.143312; stroke-linecap: square"/>
   </g>
   <g id="line2d_6">
    <path d="M 54.308967 159.426716 
L 490.657436 127.358028 
" clip-path="url(#pb872c4aa20)" style="fill: none; stroke: #7a4b2a; stroke-opacity: 0.255845; stroke-width: 1.026976; stroke-linecap: square"/>
   </g>
   <g id="line2d_7">
    <path d="M 490.657436 127.358028 
L 581.033571 395.012956 
" clip-path="url(#pb872c4aa20)" style="fill: none; stroke: #7a4b2a; stroke-opacity: 0.766688; stroke-width: 3.384713; stroke-linecap: square"/>
   </g>
   <g id="line2d_8">
    <path d="M 490.657436 127.358028 
L 472.229101 504.013437 
" clip-path="url(#pb872c4aa20)" style="fill: none; stroke: #7a4b2a; stroke-opacity: 0.423885; stroke-width: 1.802548; stroke-linecap: square"/>
   </g>
   <g id="line2d_9">
    <path d="M 157.678305 59.962131 
L 310.436634 533.036559 
" clip-path="url(#pb872c4aa20)" style="fill: none; stroke: #7a4b2a; stroke-opacity: 0.325379; stroke-width: 1.347902; stroke-linecap: square"/>
   </g>
   <g id="line2d_10">
    <path d="M 157.678305 59.962131 
L 581.033571 395.012956 
" clip-path="url(#pb872c4aa20)" style="fill: none; stroke: #7a4b2a; stroke-opacity: 0.25; stroke-linecap: square"/>
   </g>
   <g id="line2d_11">
    <path d="M 581.033571 395.012956 
L 472.229101 504.013437 
" clip-path="url(#pb872c4aa20)" style="fill: none; stroke: #7a4b2a; stroke-opacity: 0.423885; stroke-width: 1.802548; stroke-linecap: square"/>
   </g>
   <g id="line2d_12">
    <path d="M 581.033571 395.012956 
L 45.221484 294.158964 
" clip-path="url(#pb872c4aa20)" style="fill: none; stroke: #7a4b2a; stroke-opacity: 0.325379; stroke-width: 1.347902; stroke-linecap: square"/>
   </g>
   <g id="line2d_13">
    <path d="M 581.033571 395.012956 
L 69.570786 416.45517 
" clip-path="url(#pb872c4aa20)" style="fill: none; stroke: #7a4b2a; stroke-opacity: 0.309618; stroke-width: 1.275159; stroke-linecap: square"/>
   </g>
   <g id="line2d_14">
    <path d="M 581.033571 395.012956 
L 310.436634 533.036559 
" clip-path="url(#pb872c4aa20)" style="fill: none; stroke: #7a4b2a; stroke-opacity: 0.263911; stroke-width: 1.064204; stroke-linecap: square"/>
   </g>
   <g id="line2d_15">
    <path d="M 45.221484 294.158964 
L 310.436634 533.036559 
" clip-path="url(#pb872c4aa20)" style="fill: none; stroke: #7a4b2a; stroke-opacity: 0.281051; stroke-width: 1.143312; stroke-linecap: square"/>
   </g>
   <g id="PathCollection_1">
    <defs>
     <path id="me431c68940" d="M 0 10.246951 
C 2.717523 10.246951 5.324109 9.167267 7.245688 7.245688 
C 9.167267 5.324109 10.246951 2.717523 10.246951 0 
C 10.246951 -2.717523 9.167267 -5.324109 7.245688 -7.245688 
C 5.324109 -9.167267 2.717523 -10.246951 0 -10.246951 
C -2.717523 -10.246951 -5.324109 -9.167267 -7.245688 -7.245688 
C -9.167267 -5.324109 -10.246951 -2.717523 -10.246951 0 
C -10.246951 2.717523 -9.167267 5.324109 -7.245688 7.245688 
C -5.324109 9.167267 -2.717523 10.246951 0 10.246951 
z
" style="stroke: #ffffff; stroke-width: 1.5"/>
    </defs>
    <g clip-path="url(#pb872c4aa20)">
     <use xlink:href="#me431c68940" x="336.62664" y="46.63805" style="fill: #3b6fa0; stroke: #ffffff; stroke-width: 1.5"/>
     <use xlink:href="#me431c68940" x="574.804285" y="241.68528" style="fill: #3b6fa0; stroke: #ffffff; stroke-width: 1.5"/>
     <use xlink:href="#me431c68940" x="153.513198" y="520.497965" style="fill: #3b6fa0; stroke: #ffffff; stroke-width: 1.5"/>
     <use xlink:href="#me431c68940" x="54.308967" y="159.426716" style="fill: #3b6fa0; stroke: #ffffff; stroke-width: 1.5"/>
     <use xlink:href="#me431c68940" x="490.657436" y="127.358028" style="fill: #3b6fa0; stroke: #ffffff; stroke-width: 1.5"/>
     <use xlink:href="#me431c68940" x="157.678305" y="59.962131" style="fill: #3b6fa0; stroke: #ffffff; stroke-width: 1.5"/>
     <use xlink:href="#me431c68940" x="581.033571" y="395.012956" style="fill: #3b6fa0; stroke: #ffffff; stroke-width: 1.5"/>
     <use xlink:href="#me431c68940" x="69.570786" y="416.45517" style="fill: #3b6fa0; stroke: #ffffff; stroke-width: 1.5"/>
     <use xlink:href="#me431c68940" x="45.221484" y="294.158964" style="fill: #3b6fa0; stroke: #ffffff; stroke-width: 1.5"/>
     <use xlink:href="#me431c68940" x="310.436634" y="533.036559" style="fill: #3b6fa0; stroke: #ffffff; stroke-width: 1.5"/>
     <use xlink:href="#me431c68940" x="472.229101" y="504.013437" style="fill: #3b6fa0; stroke: #ffffff; stroke-width: 1.5"/>
    </g>
   </g>
   <g id="text_1">
    <!-- S02 -->
    <g style="fill: #ffffff" transform="translate(327.123906 48.975941) scale(0.09 -0.09)">
     <defs>
      <path id="DejaVuSans-Bold-36" d="M 3834 4519 
L 3834 3531 
Q 3450 3703 3084 3790 
Q 2719 3878 2394 3878 
Q 1963 3878 1756 3759 
Q 1550 3641 1550 3391 
Q 1550 3203 1689 3098 
Q 1828 2994 2194 2919 
L 2706 2816 
Q 3484 2659 3812 2340 
Q 4141 2022 4141 1434 
Q 4141 663 3683 286 
Q 3225 -91 2284 -91 
Q 1841 -91 1394 -6 
Q 947 78 500 244 
L 500 1259 
Q 947 1022 1364 901 
Q 1781 781 2169 781 
Q 2563 781 2772 912 
Q 2981 1044 2981 1288 
Q 2981 1506 2839 1625 
Q 2697 1744 2272 1838 
L 1806 1941 
Q 1106 2091 782 2419 
Q 459 2747 459 3303 
Q 459 4000 909 4375 
Q 1359 4750 2203 4750 
Q 2588 4750 2994 4692 
Q 3400 4634 3834 4519 
z
" transform="scale(0.015625)"/>
      <path id="DejaVuSans-Bold-13" d="M 2944 2338 
Q 2944 3213 2780 3570 
Q 2616 3928 2228 3928 
Q 1841 3928 1675 3570 
Q 1509 3213 1509 2338 
Q 1509 1453 1675 1090 
Q 1841 728 2228 728 
Q 2613 728 2778 1090 
Q 2944 1453 2944 2338 
z
M 4147 2328 
Q 4147 1169 3647 539 
Q 3147 -91 2228 -91 
Q 1306 -91 806 539 
Q 306 1169 306 2328 
Q 306 3491 806 4120 
Q 1306 4750 2228 4750 
Q 3147 4750 3647 4120 
Q 4147 3491 4147 2328 
z
" transform="scale(0.015625)"/>
      <path id="DejaVuSans-Bold-15" d="M 1844 884 
L 3897 884 
L 3897 0 
L 506 0 
L 506 884 
L 2209 2388 
Q 2438 2594 2547 2791 
Q 2656 2988 2656 3200 
Q 2656 3528 2436 3728 
Q 2216 3928 1850 3928 
Q 1569 3928 1234 3808 
Q 900 3688 519 3450 
L 519 4475 
Q 925 4609 1322 4679 
Q 1719 4750 2100 4750 
Q 2938 4750 3402 4381 
Q 3866 4013 3866 3353 
Q 3866 2972 3669 2642 
Q 3472 2313 2841 1759 
L 1844 884 
z
" transform="scale(0.015625)"/>
     </defs>
     <use xlink:href="#DejaVuSans-Bold-36"/>
     <use xlink:href="#DejaVuSans-Bold-13" transform="translate(72.015625 0)"/>
     <use xlink:href="#DejaVuSans-Bold-15" transform="translate(141.59375 0)"/>
    </g>
   </g>
   <g id="text_2">
    <!-- Dirse Han Oglu boğaç H -->
    <g style="fill: #2a2622" transform="translate(294.644687 68.134144) scale(0.07 -0.07)">
     <defs>
      <path id="DejaVuSans-27" d="M 1259 4147 
L 1259 519 
L 2022 519 
Q 2988 519 3436 956 
Q 3884 1394 3884 2338 
Q 3884 3275 3436 3711 
Q 2988 4147 2022 4147 
L 1259 4147 
z
M 628 4666 
L 1925 4666 
Q 3281 4666 3915 4102 
Q 4550 3538 4550 2338 
Q 4550 1131 3912 565 
Q 3275 0 1925 0 
L 628 0 
L 628 4666 
z
" transform="scale(0.015625)"/>
      <path id="DejaVuSans-4c" d="M 603 3500 
L 1178 3500 
L 1178 0 
L 603 0 
L 603 3500 
z
M 603 4863 
L 1178 4863 
L 1178 4134 
L 603 4134 
L 603 4863 
z
" transform="scale(0.015625)"/>
      <path id="DejaVuSans-55" d="M 2631 2963 
Q 2534 3019 2420 3045 
Q 2306 3072 2169 3072 
Q 1681 3072 1420 2755 
Q 1159 2438 1159 1844 
L 1159 0 
L 581 0 
L 581 3500 
L 1159 3500 
L 1159 2956 
Q 1341 3275 1631 3429 
Q 1922 3584 2338 3584 
Q 2397 3584 2469 3576 
Q 2541 3569 2628 3553 
L 2631 2963 
z
" transform="scale(0.015625)"/>
      <path id="DejaVuSans-56" d="M 2834 3397 
L 2834 2853 
Q 2591 2978 2328 3040 
Q 2066 3103 1784 3103 
Q 1356 3103 1142 2972 
Q 928 2841 928 2578 
Q 928 2378 1081 2264 
Q 1234 2150 1697 2047 
L 1894 2003 
Q 2506 1872 2764 1633 
Q 3022 1394 3022 966 
Q 3022 478 2636 193 
Q 2250 -91 1575 -91 
Q 1294 -91 989 -36 
Q 684 19 347 128 
L 347 722 
Q 666 556 975 473 
Q 1284 391 1588 391 
Q 1994 391 2212 530 
Q 2431 669 2431 922 
Q 2431 1156 2273 1281 
Q 2116 1406 1581 1522 
L 1381 1569 
Q 847 1681 609 1914 
Q 372 2147 372 2553 
Q 372 3047 722 3315 
Q 1072 3584 1716 3584 
Q 2034 3584 2315 3537 
Q 2597 3491 2834 3397 
z
" transform="scale(0.015625)"/>
      <path id="DejaVuSans-48" d="M 3597 1894 
L 3597 1613 
L 953 1613 
Q 991 1019 1311 708 
Q 1631 397 2203 397 
Q 2534 397 2845 478 
Q 3156 559 3463 722 
L 3463 178 
Q 3153 47 2828 -22 
Q 2503 -91 2169 -91 
Q 1331 -91 842 396 
Q 353 884 353 1716 
Q 353 2575 817 3079 
Q 1281 3584 2069 3584 
Q 2775 3584 3186 3129 
Q 3597 2675 3597 1894 
z
M 3022 2063 
Q 3016 2534 2758 2815 
Q 2500 3097 2075 3097 
Q 1594 3097 1305 2825 
Q 1016 2553 972 2059 
L 3022 2063 
z
" transform="scale(0.015625)"/>
      <path id="DejaVuSans-3" transform="scale(0.015625)"/>
      <path id="DejaVuSans-2b" d="M 628 4666 
L 1259 4666 
L 1259 2753 
L 3553 2753 
L 3553 4666 
L 4184 4666 
L 4184 0 
L 3553 0 
L 3553 2222 
L 1259 2222 
L 1259 0 
L 628 0 
L 628 4666 
z
" transform="scale(0.015625)"/>
      <path id="DejaVuSans-44" d="M 2194 1759 
Q 1497 1759 1228 1600 
Q 959 1441 959 1056 
Q 959 750 1161 570 
Q 1363 391 1709 391 
Q 2188 391 2477 730 
Q 2766 1069 2766 1631 
L 2766 1759 
L 2194 1759 
z
M 3341 1997 
L 3341 0 
L 2766 0 
L 2766 531 
Q 2569 213 2275 61 
Q 1981 -91 1556 -91 
Q 1019 -91 701 211 
Q 384 513 384 1019 
Q 384 1609 779 1909 
Q 1175 2209 1959 2209 
L 2766 2209 
L 2766 2266 
Q 2766 2663 2505 2880 
Q 2244 3097 1772 3097 
Q 1472 3097 1187 3025 
Q 903 2953 641 2809 
L 641 3341 
Q 956 3463 1253 3523 
Q 1550 3584 1831 3584 
Q 2591 3584 2966 3190 
Q 3341 2797 3341 1997 
z
" transform="scale(0.015625)"/>
      <path id="DejaVuSans-51" d="M 3513 2113 
L 3513 0 
L 2938 0 
L 2938 2094 
Q 2938 2591 2744 2837 
Q 2550 3084 2163 3084 
Q 1697 3084 1428 2787 
Q 1159 2491 1159 1978 
L 1159 0 
L 581 0 
L 581 3500 
L 1159 3500 
L 1159 2956 
Q 1366 3272 1645 3428 
Q 1925 3584 2291 3584 
Q 2894 3584 3203 3211 
Q 3513 2838 3513 2113 
z
" transform="scale(0.015625)"/>
      <path id="DejaVuSans-32" d="M 2522 4238 
Q 1834 4238 1429 3725 
Q 1025 3213 1025 2328 
Q 1025 1447 1429 934 
Q 1834 422 2522 422 
Q 3209 422 3611 934 
Q 4013 1447 4013 2328 
Q 4013 3213 3611 3725 
Q 3209 4238 2522 4238 
z
M 2522 4750 
Q 3503 4750 4090 4092 
Q 4678 3434 4678 2328 
Q 4678 1225 4090 567 
Q 3503 -91 2522 -91 
Q 1538 -91 948 565 
Q 359 1222 359 2328 
Q 359 3434 948 4092 
Q 1538 4750 2522 4750 
z
" transform="scale(0.015625)"/>
      <path id="DejaVuSans-4a" d="M 2906 1791 
Q 2906 2416 2648 2759 
Q 2391 3103 1925 3103 
Q 1463 3103 1205 2759 
Q 947 2416 947 1791 
Q 947 1169 1205 825 
Q 1463 481 1925 481 
Q 2391 481 2648 825 
Q 2906 1169 2906 1791 
z
M 3481 434 
Q 3481 -459 3084 -895 
Q 2688 -1331 1869 -1331 
Q 1566 -1331 1297 -1286 
Q 1028 -1241 775 -1147 
L 775 -588 
Q 1028 -725 1275 -790 
Q 1522 -856 1778 -856 
Q 2344 -856 2625 -561 
Q 2906 -266 2906 331 
L 2906 616 
Q 2728 306 2450 153 
Q 2172 0 1784 0 
Q 1141 0 747 490 
Q 353 981 353 1791 
Q 353 2603 747 3093 
Q 1141 3584 1784 3584 
Q 2172 3584 2450 3431 
Q 2728 3278 2906 2969 
L 2906 3500 
L 3481 3500 
L 3481 434 
z
" transform="scale(0.015625)"/>
      <path id="DejaVuSans-4f" d="M 603 4863 
L 1178 4863 
L 1178 0 
L 603 0 
L 603 4863 
z
" transform="scale(0.015625)"/>
      <path id="DejaVuSans-58" d="M 544 1381 
L 544 3500 
L 1119 3500 
L 1119 1403 
Q 1119 906 1312 657 
Q 1506 409 1894 409 
Q 2359 409 2629 706 
Q 2900 1003 2900 1516 
L 2900 3500 
L 3475 3500 
L 3475 0 
L 2900 0 
L 2900 538 
Q 2691 219 2414 64 
Q 2138 -91 1772 -91 
Q 1169 -91 856 284 
Q 544 659 544 1381 
z
M 1991 3584 
L 1991 3584 
z
" transform="scale(0.015625)"/>
      <path id="DejaVuSans-45" d="M 3116 1747 
Q 3116 2381 2855 2742 
Q 2594 3103 2138 3103 
Q 1681 3103 1420 2742 
Q 1159 2381 1159 1747 
Q 1159 1113 1420 752 
Q 1681 391 2138 391 
Q 2594 391 2855 752 
Q 3116 1113 3116 1747 
z
M 1159 2969 
Q 1341 3281 1617 3432 
Q 1894 3584 2278 3584 
Q 2916 3584 3314 3078 
Q 3713 2572 3713 1747 
Q 3713 922 3314 415 
Q 2916 -91 2278 -91 
Q 1894 -91 1617 61 
Q 1341 213 1159 525 
L 1159 0 
L 581 0 
L 581 4863 
L 1159 4863 
L 1159 2969 
z
" transform="scale(0.015625)"/>
      <path id="DejaVuSans-52" d="M 1959 3097 
Q 1497 3097 1228 2736 
Q 959 2375 959 1747 
Q 959 1119 1226 758 
Q 1494 397 1959 397 
Q 2419 397 2687 759 
Q 2956 1122 2956 1747 
Q 2956 2369 2687 2733 
Q 2419 3097 1959 3097 
z
M 1959 3584 
Q 2709 3584 3137 3096 
Q 3566 2609 3566 1747 
Q 3566 888 3137 398 
Q 2709 -91 1959 -91 
Q 1206 -91 779 398 
Q 353 888 353 1747 
Q 353 2609 779 3096 
Q 1206 3584 1959 3584 
z
" transform="scale(0.015625)"/>
      <path id="DejaVuSans-e1" d="M 2906 1791 
Q 2906 2416 2648 2759 
Q 2391 3103 1925 3103 
Q 1463 3103 1205 2759 
Q 947 2416 947 1791 
Q 947 1169 1205 825 
Q 1463 481 1925 481 
Q 2391 481 2648 825 
Q 2906 1169 2906 1791 
z
M 3481 434 
Q 3481 -459 3084 -895 
Q 2688 -1331 1869 -1331 
Q 1566 -1331 1297 -1286 
Q 1028 -1241 775 -1147 
L 775 -588 
Q 1028 -725 1275 -790 
Q 1522 -856 1778 -856 
Q 2344 -856 2625 -561 
Q 2906 -266 2906 331 
L 2906 616 
Q 2728 306 2450 153 
Q 2172 0 1784 0 
Q 1141 0 747 490 
Q 353 981 353 1791 
Q 353 2603 747 3093 
Q 1141 3584 1784 3584 
Q 2172 3584 2450 3431 
Q 2728 3278 2906 2969 
L 2906 3500 
L 3481 3500 
L 3481 434 
z
M 1056 5025 
L 1425 5025 
Q 1459 4791 1610 4673 
Q 1762 4556 2034 4556 
Q 2303 4556 2453 4672 
Q 2603 4788 2643 5025 
L 3012 5025 
Q 2981 4578 2734 4353 
Q 2487 4128 2034 4128 
Q 1581 4128 1334 4353 
Q 1087 4578 1056 5025 
z
" transform="scale(0.015625)"/>
      <path id="DejaVuSans-a9" d="M 3122 3366 
L 3122 2828 
Q 2878 2963 2633 3030 
Q 2388 3097 2138 3097 
Q 1578 3097 1268 2742 
Q 959 2388 959 1747 
Q 959 1106 1268 751 
Q 1578 397 2138 397 
Q 2388 397 2633 464 
Q 2878 531 3122 666 
L 3122 134 
Q 2881 22 2623 -34 
Q 2366 -91 2075 -91 
Q 1284 -91 818 406 
Q 353 903 353 1747 
Q 353 2603 823 3093 
Q 1294 3584 2113 3584 
Q 2378 3584 2631 3529 
Q 2884 3475 3122 3366 
z
M 2310 0 
Q 2481 -194 2565 -358 
Q 2650 -522 2650 -672 
Q 2650 -950 2462 -1092 
Q 2275 -1234 1906 -1234 
Q 1763 -1234 1627 -1215 
Q 1491 -1197 1356 -1159 
L 1356 -750 
Q 1463 -803 1578 -826 
Q 1694 -850 1841 -850 
Q 2025 -850 2119 -775 
Q 2213 -700 2213 -556 
Q 2213 -463 2145 -327 
Q 2078 -191 1938 0 
L 2310 0 
z
" transform="scale(0.015625)"/>
     </defs>
     <use xlink:href="#DejaVuSans-27"/>
     <use xlink:href="#DejaVuSans-4c" transform="translate(77 0)"/>
     <use xlink:href="#DejaVuSans-55" transform="translate(104.78125 0)"/>
     <use xlink:href="#DejaVuSans-56" transform="translate(145.890625 0)"/>
     <use xlink:href="#DejaVuSans-48" transform="translate(197.984375 0)"/>
     <use xlink:href="#DejaVuSans-3" transform="translate(259.515625 0)"/>
     <use xlink:href="#DejaVuSans-2b" transform="translate(291.296875 0)"/>
     <use xlink:href="#DejaVuSans-44" transform="translate(366.5 0)"/>
     <use xlink:href="#DejaVuSans-51" transform="translate(427.78125 0)"/>
     <use xlink:href="#DejaVuSans-3" transform="translate(491.15625 0)"/>
     <use xlink:href="#DejaVuSans-32" transform="translate(522.9375 0)"/>
     <use xlink:href="#DejaVuSans-4a" transform="translate(601.65625 0)"/>
     <use xlink:href="#DejaVuSans-4f" transform="translate(665.140625 0)"/>
     <use xlink:href="#DejaVuSans-58" transform="translate(692.921875 0)"/>
     <use xlink:href="#DejaVuSans-3" transform="translate(756.296875 0)"/>
     <use xlink:href="#DejaVuSans-45" transform="translate(788.078125 0)"/>
     <use xlink:href="#DejaVuSans-52" transform="translate(851.5625 0)"/>
     <use xlink:href="#DejaVuSans-e1" transform="translate(912.75 0)"/>
     <use xlink:href="#DejaVuSans-44" transform="translate(976.234375 0)"/>
     <use xlink:href="#DejaVuSans-a9" transform="translate(1037.515625 0)"/>
     <use xlink:href="#DejaVuSans-3" transform="translate(1092.5 0)"/>
     <use xlink:href="#DejaVuSans-2b" transform="translate(1124.28125 0)"/>
    </g>
   </g>
   <g id="text_3">
    <!-- S03 -->
    <g style="fill: #ffffff" transform="translate(565.301551 244.023171) scale(0.09 -0.09)">
     <defs>
      <path id="DejaVuSans-Bold-16" d="M 2981 2516 
Q 3453 2394 3698 2092 
Q 3944 1791 3944 1325 
Q 3944 631 3412 270 
Q 2881 -91 1863 -91 
Q 1503 -91 1142 -33 
Q 781 25 428 141 
L 428 1069 
Q 766 900 1098 814 
Q 1431 728 1753 728 
Q 2231 728 2486 893 
Q 2741 1059 2741 1369 
Q 2741 1688 2480 1852 
Q 2219 2016 1709 2016 
L 1228 2016 
L 1228 2791 
L 1734 2791 
Q 2188 2791 2409 2933 
Q 2631 3075 2631 3366 
Q 2631 3634 2415 3781 
Q 2200 3928 1806 3928 
Q 1516 3928 1219 3862 
Q 922 3797 628 3669 
L 628 4550 
Q 984 4650 1334 4700 
Q 1684 4750 2022 4750 
Q 2931 4750 3382 4451 
Q 3834 4153 3834 3553 
Q 3834 3144 3618 2883 
Q 3403 2622 2981 2516 
z
" transform="scale(0.015625)"/>
     </defs>
     <use xlink:href="#DejaVuSans-Bold-36"/>
     <use xlink:href="#DejaVuSans-Bold-13" transform="translate(72.015625 0)"/>
     <use xlink:href="#DejaVuSans-Bold-16" transform="translate(141.59375 0)"/>
    </g>
   </g>
   <g id="text_4">
    <!-- Salur Kazan'ın Evinin  -->
    <g style="fill: #2a2622" transform="translate(537.075926 263.004186) scale(0.07 -0.07)">
     <defs>
      <path id="DejaVuSans-36" d="M 3425 4513 
L 3425 3897 
Q 3066 4069 2747 4153 
Q 2428 4238 2131 4238 
Q 1616 4238 1336 4038 
Q 1056 3838 1056 3469 
Q 1056 3159 1242 3001 
Q 1428 2844 1947 2747 
L 2328 2669 
Q 3034 2534 3370 2195 
Q 3706 1856 3706 1288 
Q 3706 609 3251 259 
Q 2797 -91 1919 -91 
Q 1588 -91 1214 -16 
Q 841 59 441 206 
L 441 856 
Q 825 641 1194 531 
Q 1563 422 1919 422 
Q 2459 422 2753 634 
Q 3047 847 3047 1241 
Q 3047 1584 2836 1778 
Q 2625 1972 2144 2069 
L 1759 2144 
Q 1053 2284 737 2584 
Q 422 2884 422 3419 
Q 422 4038 858 4394 
Q 1294 4750 2059 4750 
Q 2388 4750 2728 4690 
Q 3069 4631 3425 4513 
z
" transform="scale(0.015625)"/>
      <path id="DejaVuSans-2e" d="M 628 4666 
L 1259 4666 
L 1259 2694 
L 3353 4666 
L 4166 4666 
L 1850 2491 
L 4331 0 
L 3500 0 
L 1259 2247 
L 1259 0 
L 628 0 
L 628 4666 
z
" transform="scale(0.015625)"/>
      <path id="DejaVuSans-5d" d="M 353 3500 
L 3084 3500 
L 3084 2975 
L 922 459 
L 3084 459 
L 3084 0 
L 275 0 
L 275 525 
L 2438 3041 
L 353 3041 
L 353 3500 
z
" transform="scale(0.015625)"/>
      <path id="DejaVuSans-a" d="M 1147 4666 
L 1147 2931 
L 616 2931 
L 616 4666 
L 1147 4666 
z
" transform="scale(0.015625)"/>
      <path id="DejaVuSans-f3" d="M 603 3500 
L 1178 3500 
L 1178 0 
L 603 0 
L 603 3500 
z
M 891 3584 
L 891 3584 
z
" transform="scale(0.015625)"/>
      <path id="DejaVuSans-28" d="M 628 4666 
L 3578 4666 
L 3578 4134 
L 1259 4134 
L 1259 2753 
L 3481 2753 
L 3481 2222 
L 1259 2222 
L 1259 531 
L 3634 531 
L 3634 0 
L 628 0 
L 628 4666 
z
" transform="scale(0.015625)"/>
      <path id="DejaVuSans-59" d="M 191 3500 
L 800 3500 
L 1894 563 
L 2988 3500 
L 3597 3500 
L 2284 0 
L 1503 0 
L 191 3500 
z
" transform="scale(0.015625)"/>
     </defs>
     <use xlink:href="#DejaVuSans-36"/>
     <use xlink:href="#DejaVuSans-44" transform="translate(63.484375 0)"/>
     <use xlink:href="#DejaVuSans-4f" transform="translate(124.765625 0)"/>
     <use xlink:href="#DejaVuSans-58" transform="translate(152.546875 0)"/>
     <use xlink:href="#DejaVuSans-55" transform="translate(215.921875 0)"/>
     <use xlink:href="#DejaVuSans-3" transform="translate(257.03125 0)"/>
     <use xlink:href="#DejaVuSans-2e" transform="translate(288.8125 0)"/>
     <use xlink:href="#DejaVuSans-44" transform="translate(352.640625 0)"/>
     <use xlink:href="#DejaVuSans-5d" transform="translate(413.921875 0)"/>
     <use xlink:href="#DejaVuSans-44" transform="translate(466.40625 0)"/>
     <use xlink:href="#DejaVuSans-51" transform="translate(527.6875 0)"/>
     <use xlink:href="#DejaVuSans-a" transform="translate(591.0625 0)"/>
     <use xlink:href="#DejaVuSans-f3" transform="translate(618.546875 0)"/>
     <use xlink:href="#DejaVuSans-51" transform="translate(646.328125 0)"/>
     <use xlink:href="#DejaVuSans-3" transform="translate(709.703125 0)"/>
     <use xlink:href="#DejaVuSans-28" transform="translate(741.484375 0)"/>
     <use xlink:href="#DejaVuSans-59" transform="translate(804.671875 0)"/>
     <use xlink:href="#DejaVuSans-4c" transform="translate(863.859375 0)"/>
     <use xlink:href="#DejaVuSans-51" transform="translate(891.640625 0)"/>
     <use xlink:href="#DejaVuSans-4c" transform="translate(955.015625 0)"/>
     <use xlink:href="#DejaVuSans-51" transform="translate(982.796875 0)"/>
     <use xlink:href="#DejaVuSans-3" transform="translate(1046.171875 0)"/>
    </g>
   </g>
   <g id="text_5">
    <!-- S04 -->
    <g style="fill: #ffffff" transform="translate(144.010463 522.835856) scale(0.09 -0.09)">
     <defs>
      <path id="DejaVuSans-Bold-17" d="M 2356 3675 
L 1038 1722 
L 2356 1722 
L 2356 3675 
z
M 2156 4666 
L 3494 4666 
L 3494 1722 
L 4159 1722 
L 4159 850 
L 3494 850 
L 3494 0 
L 2356 0 
L 2356 850 
L 288 850 
L 288 1881 
L 2156 4666 
z
" transform="scale(0.015625)"/>
     </defs>
     <use xlink:href="#DejaVuSans-Bold-36"/>
     <use xlink:href="#DejaVuSans-Bold-13" transform="translate(72.015625 0)"/>
     <use xlink:href="#DejaVuSans-Bold-17" transform="translate(141.59375 0)"/>
    </g>
   </g>
   <g id="text_6">
    <!-- Kam Püre'nin Oğlu Bams -->
    <g style="fill: #2a2622" transform="translate(110.288745 541.994059) scale(0.07 -0.07)">
     <defs>
      <path id="DejaVuSans-50" d="M 3328 2828 
Q 3544 3216 3844 3400 
Q 4144 3584 4550 3584 
Q 5097 3584 5394 3201 
Q 5691 2819 5691 2113 
L 5691 0 
L 5113 0 
L 5113 2094 
Q 5113 2597 4934 2840 
Q 4756 3084 4391 3084 
Q 3944 3084 3684 2787 
Q 3425 2491 3425 1978 
L 3425 0 
L 2847 0 
L 2847 2094 
Q 2847 2600 2669 2842 
Q 2491 3084 2119 3084 
Q 1678 3084 1418 2786 
Q 1159 2488 1159 1978 
L 1159 0 
L 581 0 
L 581 3500 
L 1159 3500 
L 1159 2956 
Q 1356 3278 1631 3431 
Q 1906 3584 2284 3584 
Q 2666 3584 2933 3390 
Q 3200 3197 3328 2828 
z
" transform="scale(0.015625)"/>
      <path id="DejaVuSans-33" d="M 1259 4147 
L 1259 2394 
L 2053 2394 
Q 2494 2394 2734 2622 
Q 2975 2850 2975 3272 
Q 2975 3691 2734 3919 
Q 2494 4147 2053 4147 
L 1259 4147 
z
M 628 4666 
L 2053 4666 
Q 2838 4666 3239 4311 
Q 3641 3956 3641 3272 
Q 3641 2581 3239 2228 
Q 2838 1875 2053 1875 
L 1259 1875 
L 1259 0 
L 628 0 
L 628 4666 
z
" transform="scale(0.015625)"/>
      <path id="DejaVuSans-be" d="M 544 1381 
L 544 3500 
L 1119 3500 
L 1119 1403 
Q 1119 906 1312 657 
Q 1506 409 1894 409 
Q 2359 409 2629 706 
Q 2900 1003 2900 1516 
L 2900 3500 
L 3475 3500 
L 3475 0 
L 2900 0 
L 2900 538 
Q 2691 219 2414 64 
Q 2138 -91 1772 -91 
Q 1169 -91 856 284 
Q 544 659 544 1381 
z
M 1991 3584 
L 1991 3584 
z
M 2278 4850 
L 2912 4850 
L 2912 4219 
L 2278 4219 
L 2278 4850 
z
M 1056 4850 
L 1690 4850 
L 1690 4219 
L 1056 4219 
L 1056 4850 
z
" transform="scale(0.015625)"/>
      <path id="DejaVuSans-25" d="M 1259 2228 
L 1259 519 
L 2272 519 
Q 2781 519 3026 730 
Q 3272 941 3272 1375 
Q 3272 1813 3026 2020 
Q 2781 2228 2272 2228 
L 1259 2228 
z
M 1259 4147 
L 1259 2741 
L 2194 2741 
Q 2656 2741 2882 2914 
Q 3109 3088 3109 3444 
Q 3109 3797 2882 3972 
Q 2656 4147 2194 4147 
L 1259 4147 
z
M 628 4666 
L 2241 4666 
Q 2963 4666 3353 4366 
Q 3744 4066 3744 3513 
Q 3744 3084 3544 2831 
Q 3344 2578 2956 2516 
Q 3422 2416 3680 2098 
Q 3938 1781 3938 1306 
Q 3938 681 3513 340 
Q 3088 0 2303 0 
L 628 0 
L 628 4666 
z
" transform="scale(0.015625)"/>
     </defs>
     <use xlink:href="#DejaVuSans-2e"/>
     <use xlink:href="#DejaVuSans-44" transform="translate(63.828125 0)"/>
     <use xlink:href="#DejaVuSans-50" transform="translate(125.109375 0)"/>
     <use xlink:href="#DejaVuSans-3" transform="translate(222.515625 0)"/>
     <use xlink:href="#DejaVuSans-33" transform="translate(254.296875 0)"/>
     <use xlink:href="#DejaVuSans-be" transform="translate(312.84375 0)"/>
     <use xlink:href="#DejaVuSans-55" transform="translate(376.21875 0)"/>
     <use xlink:href="#DejaVuSans-48" transform="translate(415.125 0)"/>
     <use xlink:href="#DejaVuSans-a" transform="translate(476.65625 0)"/>
     <use xlink:href="#DejaVuSans-51" transform="translate(504.140625 0)"/>
     <use xlink:href="#DejaVuSans-4c" transform="translate(567.515625 0)"/>
     <use xlink:href="#DejaVuSans-51" transform="translate(595.296875 0)"/>
     <use xlink:href="#DejaVuSans-3" transform="translate(658.671875 0)"/>
     <use xlink:href="#DejaVuSans-32" transform="translate(690.453125 0)"/>
     <use xlink:href="#DejaVuSans-e1" transform="translate(769.171875 0)"/>
     <use xlink:href="#DejaVuSans-4f" transform="translate(832.65625 0)"/>
     <use xlink:href="#DejaVuSans-58" transform="translate(860.4375 0)"/>
     <use xlink:href="#DejaVuSans-3" transform="translate(923.8125 0)"/>
     <use xlink:href="#DejaVuSans-25" transform="translate(955.59375 0)"/>
     <use xlink:href="#DejaVuSans-44" transform="translate(1024.203125 0)"/>
     <use xlink:href="#DejaVuSans-50" transform="translate(1085.484375 0)"/>
     <use xlink:href="#DejaVuSans-56" transform="translate(1182.890625 0)"/>
    </g>
   </g>
   <g id="text_7">
    <!-- S05 -->
    <g style="fill: #ffffff" transform="translate(44.806233 161.764606) scale(0.09 -0.09)">
     <defs>
      <path id="DejaVuSans-Bold-18" d="M 678 4666 
L 3669 4666 
L 3669 3781 
L 1638 3781 
L 1638 3059 
Q 1775 3097 1914 3117 
Q 2053 3138 2203 3138 
Q 3056 3138 3531 2711 
Q 4006 2284 4006 1522 
Q 4006 766 3489 337 
Q 2972 -91 2053 -91 
Q 1656 -91 1267 -14 
Q 878 63 494 219 
L 494 1166 
Q 875 947 1217 837 
Q 1559 728 1863 728 
Q 2300 728 2551 942 
Q 2803 1156 2803 1522 
Q 2803 1891 2551 2103 
Q 2300 2316 1863 2316 
Q 1603 2316 1309 2248 
Q 1016 2181 678 2041 
L 678 4666 
z
" transform="scale(0.015625)"/>
     </defs>
     <use xlink:href="#DejaVuSans-Bold-36"/>
     <use xlink:href="#DejaVuSans-Bold-13" transform="translate(72.015625 0)"/>
     <use xlink:href="#DejaVuSans-Bold-18" transform="translate(141.59375 0)"/>
    </g>
   </g>
   <g id="text_8">
    <!-- Kazan Bey Oğlu Uruz Be -->
    <g style="fill: #2a2622" transform="translate(11.876389 180.922809) scale(0.07 -0.07)">
     <defs>
      <path id="DejaVuSans-5c" d="M 2059 -325 
Q 1816 -950 1584 -1140 
Q 1353 -1331 966 -1331 
L 506 -1331 
L 506 -850 
L 844 -850 
Q 1081 -850 1212 -737 
Q 1344 -625 1503 -206 
L 1606 56 
L 191 3500 
L 800 3500 
L 1894 763 
L 2988 3500 
L 3597 3500 
L 2059 -325 
z
" transform="scale(0.015625)"/>
      <path id="DejaVuSans-38" d="M 556 4666 
L 1191 4666 
L 1191 1831 
Q 1191 1081 1462 751 
Q 1734 422 2344 422 
Q 2950 422 3222 751 
Q 3494 1081 3494 1831 
L 3494 4666 
L 4128 4666 
L 4128 1753 
Q 4128 841 3676 375 
Q 3225 -91 2344 -91 
Q 1459 -91 1007 375 
Q 556 841 556 1753 
L 556 4666 
z
" transform="scale(0.015625)"/>
     </defs>
     <use xlink:href="#DejaVuSans-2e"/>
     <use xlink:href="#DejaVuSans-44" transform="translate(63.828125 0)"/>
     <use xlink:href="#DejaVuSans-5d" transform="translate(125.109375 0)"/>
     <use xlink:href="#DejaVuSans-44" transform="translate(177.59375 0)"/>
     <use xlink:href="#DejaVuSans-51" transform="translate(238.875 0)"/>
     <use xlink:href="#DejaVuSans-3" transform="translate(302.25 0)"/>
     <use xlink:href="#DejaVuSans-25" transform="translate(334.03125 0)"/>
     <use xlink:href="#DejaVuSans-48" transform="translate(402.640625 0)"/>
     <use xlink:href="#DejaVuSans-5c" transform="translate(464.171875 0)"/>
     <use xlink:href="#DejaVuSans-3" transform="translate(523.359375 0)"/>
     <use xlink:href="#DejaVuSans-32" transform="translate(555.140625 0)"/>
     <use xlink:href="#DejaVuSans-e1" transform="translate(633.859375 0)"/>
     <use xlink:href="#DejaVuSans-4f" transform="translate(697.34375 0)"/>
     <use xlink:href="#DejaVuSans-58" transform="translate(725.125 0)"/>
     <use xlink:href="#DejaVuSans-3" transform="translate(788.5 0)"/>
     <use xlink:href="#DejaVuSans-38" transform="translate(820.28125 0)"/>
     <use xlink:href="#DejaVuSans-55" transform="translate(893.46875 0)"/>
     <use xlink:href="#DejaVuSans-58" transform="translate(934.578125 0)"/>
     <use xlink:href="#DejaVuSans-5d" transform="translate(997.953125 0)"/>
     <use xlink:href="#DejaVuSans-3" transform="translate(1050.4375 0)"/>
     <use xlink:href="#DejaVuSans-25" transform="translate(1082.21875 0)"/>
     <use xlink:href="#DejaVuSans-48" transform="translate(1150.828125 0)"/>
    </g>
   </g>
   <g id="text_9">
    <!-- S08 -->
    <g style="fill: #ffffff" transform="translate(481.154702 129.695918) scale(0.09 -0.09)">
     <defs>
      <path id="DejaVuSans-Bold-1b" d="M 2228 2088 
Q 1891 2088 1709 1903 
Q 1528 1719 1528 1375 
Q 1528 1031 1709 848 
Q 1891 666 2228 666 
Q 2563 666 2741 848 
Q 2919 1031 2919 1375 
Q 2919 1722 2741 1905 
Q 2563 2088 2228 2088 
z
M 1350 2484 
Q 925 2613 709 2878 
Q 494 3144 494 3541 
Q 494 4131 934 4440 
Q 1375 4750 2228 4750 
Q 3075 4750 3515 4442 
Q 3956 4134 3956 3541 
Q 3956 3144 3739 2878 
Q 3522 2613 3097 2484 
Q 3572 2353 3814 2058 
Q 4056 1763 4056 1313 
Q 4056 619 3595 264 
Q 3134 -91 2228 -91 
Q 1319 -91 855 264 
Q 391 619 391 1313 
Q 391 1763 633 2058 
Q 875 2353 1350 2484 
z
M 1631 3419 
Q 1631 3141 1786 2991 
Q 1941 2841 2228 2841 
Q 2509 2841 2662 2991 
Q 2816 3141 2816 3419 
Q 2816 3697 2662 3845 
Q 2509 3994 2228 3994 
Q 1941 3994 1786 3844 
Q 1631 3694 1631 3419 
z
" transform="scale(0.015625)"/>
     </defs>
     <use xlink:href="#DejaVuSans-Bold-36"/>
     <use xlink:href="#DejaVuSans-Bold-13" transform="translate(72.015625 0)"/>
     <use xlink:href="#DejaVuSans-Bold-1b" transform="translate(141.59375 0)"/>
    </g>
   </g>
   <g id="text_10">
    <!-- Kazılık koca oğlu yige -->
    <g style="fill: #2a2622" transform="translate(453.074545 148.854121) scale(0.07 -0.07)">
     <defs>
      <path id="DejaVuSans-4e" d="M 581 4863 
L 1159 4863 
L 1159 1991 
L 2875 3500 
L 3609 3500 
L 1753 1863 
L 3688 0 
L 2938 0 
L 1159 1709 
L 1159 0 
L 581 0 
L 581 4863 
z
" transform="scale(0.015625)"/>
      <path id="DejaVuSans-46" d="M 3122 3366 
L 3122 2828 
Q 2878 2963 2633 3030 
Q 2388 3097 2138 3097 
Q 1578 3097 1268 2742 
Q 959 2388 959 1747 
Q 959 1106 1268 751 
Q 1578 397 2138 397 
Q 2388 397 2633 464 
Q 2878 531 3122 666 
L 3122 134 
Q 2881 22 2623 -34 
Q 2366 -91 2075 -91 
Q 1284 -91 818 406 
Q 353 903 353 1747 
Q 353 2603 823 3093 
Q 1294 3584 2113 3584 
Q 2378 3584 2631 3529 
Q 2884 3475 3122 3366 
z
" transform="scale(0.015625)"/>
     </defs>
     <use xlink:href="#DejaVuSans-2e"/>
     <use xlink:href="#DejaVuSans-44" transform="translate(63.828125 0)"/>
     <use xlink:href="#DejaVuSans-5d" transform="translate(125.109375 0)"/>
     <use xlink:href="#DejaVuSans-f3" transform="translate(177.59375 0)"/>
     <use xlink:href="#DejaVuSans-4f" transform="translate(205.375 0)"/>
     <use xlink:href="#DejaVuSans-f3" transform="translate(233.15625 0)"/>
     <use xlink:href="#DejaVuSans-4e" transform="translate(260.9375 0)"/>
     <use xlink:href="#DejaVuSans-3" transform="translate(318.84375 0)"/>
     <use xlink:href="#DejaVuSans-4e" transform="translate(350.625 0)"/>
     <use xlink:href="#DejaVuSans-52" transform="translate(404.96875 0)"/>
     <use xlink:href="#DejaVuSans-46" transform="translate(466.15625 0)"/>
     <use xlink:href="#DejaVuSans-44" transform="translate(521.140625 0)"/>
     <use xlink:href="#DejaVuSans-3" transform="translate(582.421875 0)"/>
     <use xlink:href="#DejaVuSans-52" transform="translate(614.203125 0)"/>
     <use xlink:href="#DejaVuSans-e1" transform="translate(675.390625 0)"/>
     <use xlink:href="#DejaVuSans-4f" transform="translate(738.875 0)"/>
     <use xlink:href="#DejaVuSans-58" transform="translate(766.65625 0)"/>
     <use xlink:href="#DejaVuSans-3" transform="translate(830.03125 0)"/>
     <use xlink:href="#DejaVuSans-5c" transform="translate(861.8125 0)"/>
     <use xlink:href="#DejaVuSans-4c" transform="translate(921 0)"/>
     <use xlink:href="#DejaVuSans-4a" transform="translate(948.78125 0)"/>
     <use xlink:href="#DejaVuSans-48" transform="translate(1012.265625 0)"/>
    </g>
   </g>
   <g id="text_11">
    <!-- S09 -->
    <g style="fill: #ffffff" transform="translate(148.175571 62.300022) scale(0.09 -0.09)">
     <defs>
      <path id="DejaVuSans-Bold-1c" d="M 641 103 
L 641 966 
Q 928 831 1190 764 
Q 1453 697 1709 697 
Q 2247 697 2547 995 
Q 2847 1294 2900 1881 
Q 2688 1725 2447 1647 
Q 2206 1569 1925 1569 
Q 1209 1569 770 1986 
Q 331 2403 331 3084 
Q 331 3838 820 4291 
Q 1309 4744 2131 4744 
Q 3044 4744 3544 4128 
Q 4044 3513 4044 2388 
Q 4044 1231 3459 570 
Q 2875 -91 1856 -91 
Q 1528 -91 1228 -42 
Q 928 6 641 103 
z
M 2125 2350 
Q 2441 2350 2600 2554 
Q 2759 2759 2759 3169 
Q 2759 3575 2600 3781 
Q 2441 3988 2125 3988 
Q 1809 3988 1650 3781 
Q 1491 3575 1491 3169 
Q 1491 2759 1650 2554 
Q 1809 2350 2125 2350 
z
" transform="scale(0.015625)"/>
     </defs>
     <use xlink:href="#DejaVuSans-Bold-36"/>
     <use xlink:href="#DejaVuSans-Bold-13" transform="translate(72.015625 0)"/>
     <use xlink:href="#DejaVuSans-Bold-1c" transform="translate(141.59375 0)"/>
    </g>
   </g>
   <g id="text_12">
    <!-- Basat'ın Tepegözü Öldü -->
    <g style="fill: #2a2622" transform="translate(116.756196 82.354006) scale(0.07 -0.07)">
     <defs>
      <path id="DejaVuSans-57" d="M 1172 4494 
L 1172 3500 
L 2356 3500 
L 2356 3053 
L 1172 3053 
L 1172 1153 
Q 1172 725 1289 603 
Q 1406 481 1766 481 
L 2356 481 
L 2356 0 
L 1766 0 
Q 1100 0 847 248 
Q 594 497 594 1153 
L 594 3053 
L 172 3053 
L 172 3500 
L 594 3500 
L 594 4494 
L 1172 4494 
z
" transform="scale(0.015625)"/>
      <path id="DejaVuSans-37" d="M -19 4666 
L 3928 4666 
L 3928 4134 
L 2272 4134 
L 2272 0 
L 1638 0 
L 1638 4134 
L -19 4134 
L -19 4666 
z
" transform="scale(0.015625)"/>
      <path id="DejaVuSans-53" d="M 1159 525 
L 1159 -1331 
L 581 -1331 
L 581 3500 
L 1159 3500 
L 1159 2969 
Q 1341 3281 1617 3432 
Q 1894 3584 2278 3584 
Q 2916 3584 3314 3078 
Q 3713 2572 3713 1747 
Q 3713 922 3314 415 
Q 2916 -91 2278 -91 
Q 1894 -91 1617 61 
Q 1341 213 1159 525 
z
M 3116 1747 
Q 3116 2381 2855 2742 
Q 2594 3103 2138 3103 
Q 1681 3103 1420 2742 
Q 1159 2381 1159 1747 
Q 1159 1113 1420 752 
Q 1681 391 2138 391 
Q 2594 391 2855 752 
Q 3116 1113 3116 1747 
z
" transform="scale(0.015625)"/>
      <path id="DejaVuSans-b8" d="M 1959 3097 
Q 1497 3097 1228 2736 
Q 959 2375 959 1747 
Q 959 1119 1226 758 
Q 1494 397 1959 397 
Q 2419 397 2687 759 
Q 2956 1122 2956 1747 
Q 2956 2369 2687 2733 
Q 2419 3097 1959 3097 
z
M 1959 3584 
Q 2709 3584 3137 3096 
Q 3566 2609 3566 1747 
Q 3566 888 3137 398 
Q 2709 -91 1959 -91 
Q 1206 -91 779 398 
Q 353 888 353 1747 
Q 353 2609 779 3096 
Q 1206 3584 1959 3584 
z
M 2253 4850 
L 2887 4850 
L 2887 4219 
L 2253 4219 
L 2253 4850 
z
M 1031 4850 
L 1665 4850 
L 1665 4219 
L 1031 4219 
L 1031 4850 
z
" transform="scale(0.015625)"/>
      <path id="DejaVuSans-98" d="M 2522 4238 
Q 1834 4238 1429 3725 
Q 1025 3213 1025 2328 
Q 1025 1447 1429 934 
Q 1834 422 2522 422 
Q 3209 422 3611 934 
Q 4013 1447 4013 2328 
Q 4013 3213 3611 3725 
Q 3209 4238 2522 4238 
z
M 2522 4750 
Q 3503 4750 4090 4092 
Q 4678 3434 4678 2328 
Q 4678 1225 4090 567 
Q 3503 -91 2522 -91 
Q 1538 -91 948 565 
Q 359 1222 359 2328 
Q 359 3434 948 4092 
Q 1538 4750 2522 4750 
z
M 2816 5844 
L 3450 5844 
L 3450 5210 
L 2816 5210 
L 2816 5844 
z
M 1594 5844 
L 2228 5844 
L 2228 5210 
L 1594 5210 
L 1594 5844 
z
" transform="scale(0.015625)"/>
      <path id="DejaVuSans-47" d="M 2906 2969 
L 2906 4863 
L 3481 4863 
L 3481 0 
L 2906 0 
L 2906 525 
Q 2725 213 2448 61 
Q 2172 -91 1784 -91 
Q 1150 -91 751 415 
Q 353 922 353 1747 
Q 353 2572 751 3078 
Q 1150 3584 1784 3584 
Q 2172 3584 2448 3432 
Q 2725 3281 2906 2969 
z
M 947 1747 
Q 947 1113 1208 752 
Q 1469 391 1925 391 
Q 2381 391 2643 752 
Q 2906 1113 2906 1747 
Q 2906 2381 2643 2742 
Q 2381 3103 1925 3103 
Q 1469 3103 1208 2742 
Q 947 2381 947 1747 
z
" transform="scale(0.015625)"/>
     </defs>
     <use xlink:href="#DejaVuSans-25"/>
     <use xlink:href="#DejaVuSans-44" transform="translate(68.609375 0)"/>
     <use xlink:href="#DejaVuSans-56" transform="translate(129.890625 0)"/>
     <use xlink:href="#DejaVuSans-44" transform="translate(181.984375 0)"/>
     <use xlink:href="#DejaVuSans-57" transform="translate(243.265625 0)"/>
     <use xlink:href="#DejaVuSans-a" transform="translate(282.46875 0)"/>
     <use xlink:href="#DejaVuSans-f3" transform="translate(309.953125 0)"/>
     <use xlink:href="#DejaVuSans-51" transform="translate(337.734375 0)"/>
     <use xlink:href="#DejaVuSans-3" transform="translate(401.109375 0)"/>
     <use xlink:href="#DejaVuSans-37" transform="translate(432.890625 0)"/>
     <use xlink:href="#DejaVuSans-48" transform="translate(476.984375 0)"/>
     <use xlink:href="#DejaVuSans-53" transform="translate(538.515625 0)"/>
     <use xlink:href="#DejaVuSans-48" transform="translate(602 0)"/>
     <use xlink:href="#DejaVuSans-4a" transform="translate(663.53125 0)"/>
     <use xlink:href="#DejaVuSans-b8" transform="translate(727.015625 0)"/>
     <use xlink:href="#DejaVuSans-5d" transform="translate(788.203125 0)"/>
     <use xlink:href="#DejaVuSans-be" transform="translate(840.6875 0)"/>
     <use xlink:href="#DejaVuSans-3" transform="translate(904.0625 0)"/>
     <use xlink:href="#DejaVuSans-98" transform="translate(935.84375 0)"/>
     <use xlink:href="#DejaVuSans-4f" transform="translate(1014.5625 0)"/>
     <use xlink:href="#DejaVuSans-47" transform="translate(1042.34375 0)"/>
     <use xlink:href="#DejaVuSans-be" transform="translate(1105.828125 0)"/>
    </g>
   </g>
   <g id="text_13">
    <!-- S10 -->
    <g style="fill: #ffffff" transform="translate(571.530837 397.350847) scale(0.09 -0.09)">
     <defs>
      <path id="DejaVuSans-Bold-14" d="M 750 831 
L 1813 831 
L 1813 3847 
L 722 3622 
L 722 4441 
L 1806 4666 
L 2950 4666 
L 2950 831 
L 4013 831 
L 4013 0 
L 750 0 
L 750 831 
z
" transform="scale(0.015625)"/>
     </defs>
     <use xlink:href="#DejaVuSans-Bold-36"/>
     <use xlink:href="#DejaVuSans-Bold-14" transform="translate(72.015625 0)"/>
     <use xlink:href="#DejaVuSans-Bold-13" transform="translate(141.59375 0)"/>
    </g>
   </g>
   <g id="text_14">
    <!-- Begil Oğlu Emrenin boy -->
    <g style="fill: #2a2622" transform="translate(539.827634 416.50905) scale(0.07 -0.07)">
     <use xlink:href="#DejaVuSans-25"/>
     <use xlink:href="#DejaVuSans-48" transform="translate(68.609375 0)"/>
     <use xlink:href="#DejaVuSans-4a" transform="translate(130.140625 0)"/>
     <use xlink:href="#DejaVuSans-4c" transform="translate(193.625 0)"/>
     <use xlink:href="#DejaVuSans-4f" transform="translate(221.40625 0)"/>
     <use xlink:href="#DejaVuSans-3" transform="translate(249.1875 0)"/>
     <use xlink:href="#DejaVuSans-32" transform="translate(280.96875 0)"/>
     <use xlink:href="#DejaVuSans-e1" transform="translate(359.6875 0)"/>
     <use xlink:href="#DejaVuSans-4f" transform="translate(423.171875 0)"/>
     <use xlink:href="#DejaVuSans-58" transform="translate(450.953125 0)"/>
     <use xlink:href="#DejaVuSans-3" transform="translate(514.328125 0)"/>
     <use xlink:href="#DejaVuSans-28" transform="translate(546.109375 0)"/>
     <use xlink:href="#DejaVuSans-50" transform="translate(609.296875 0)"/>
     <use xlink:href="#DejaVuSans-55" transform="translate(706.703125 0)"/>
     <use xlink:href="#DejaVuSans-48" transform="translate(745.609375 0)"/>
     <use xlink:href="#DejaVuSans-51" transform="translate(807.140625 0)"/>
     <use xlink:href="#DejaVuSans-4c" transform="translate(870.515625 0)"/>
     <use xlink:href="#DejaVuSans-51" transform="translate(898.296875 0)"/>
     <use xlink:href="#DejaVuSans-3" transform="translate(961.671875 0)"/>
     <use xlink:href="#DejaVuSans-45" transform="translate(993.453125 0)"/>
     <use xlink:href="#DejaVuSans-52" transform="translate(1056.9375 0)"/>
     <use xlink:href="#DejaVuSans-5c" transform="translate(1118.125 0)"/>
    </g>
   </g>
   <g id="text_15">
    <!-- S11 -->
    <g style="fill: #ffffff" transform="translate(60.068052 418.793061) scale(0.09 -0.09)">
     <use xlink:href="#DejaVuSans-Bold-36"/>
     <use xlink:href="#DejaVuSans-Bold-14" transform="translate(72.015625 0)"/>
     <use xlink:href="#DejaVuSans-Bold-14" transform="translate(141.59375 0)"/>
    </g>
   </g>
   <g id="text_16">
    <!-- uşun koca oğlu seyrek  -->
    <g style="fill: #2a2622" transform="translate(29.386411 437.951264) scale(0.07 -0.07)">
     <defs>
      <path id="DejaVuSans-121" d="M 2834 3397 
L 2834 2853 
Q 2591 2978 2328 3040 
Q 2066 3103 1784 3103 
Q 1356 3103 1142 2972 
Q 928 2841 928 2578 
Q 928 2378 1081 2264 
Q 1234 2150 1697 2047 
L 1894 2003 
Q 2506 1872 2764 1633 
Q 3022 1394 3022 966 
Q 3022 478 2636 193 
Q 2250 -91 1575 -91 
Q 1294 -91 989 -36 
Q 684 19 347 128 
L 347 722 
Q 666 556 975 473 
Q 1284 391 1588 391 
Q 1994 391 2212 530 
Q 2431 669 2431 922 
Q 2431 1156 2273 1281 
Q 2116 1406 1581 1522 
L 1381 1569 
Q 847 1681 609 1914 
Q 372 2147 372 2553 
Q 372 3047 722 3315 
Q 1072 3584 1716 3584 
Q 2034 3584 2315 3537 
Q 2597 3491 2834 3397 
z
M 1935 0 
Q 2106 -194 2190 -358 
Q 2275 -522 2275 -672 
Q 2275 -950 2087 -1092 
Q 1900 -1234 1531 -1234 
Q 1388 -1234 1252 -1215 
Q 1116 -1197 981 -1159 
L 981 -750 
Q 1088 -803 1203 -826 
Q 1319 -850 1466 -850 
Q 1650 -850 1744 -775 
Q 1838 -700 1838 -556 
Q 1838 -463 1770 -327 
Q 1703 -191 1563 0 
L 1935 0 
z
" transform="scale(0.015625)"/>
     </defs>
     <use xlink:href="#DejaVuSans-58"/>
     <use xlink:href="#DejaVuSans-121" transform="translate(63.375 0)"/>
     <use xlink:href="#DejaVuSans-58" transform="translate(115.46875 0)"/>
     <use xlink:href="#DejaVuSans-51" transform="translate(178.84375 0)"/>
     <use xlink:href="#DejaVuSans-3" transform="translate(242.21875 0)"/>
     <use xlink:href="#DejaVuSans-4e" transform="translate(274 0)"/>
     <use xlink:href="#DejaVuSans-52" transform="translate(328.34375 0)"/>
     <use xlink:href="#DejaVuSans-46" transform="translate(389.53125 0)"/>
     <use xlink:href="#DejaVuSans-44" transform="translate(444.515625 0)"/>
     <use xlink:href="#DejaVuSans-3" transform="translate(505.796875 0)"/>
     <use xlink:href="#DejaVuSans-52" transform="translate(537.578125 0)"/>
     <use xlink:href="#DejaVuSans-e1" transform="translate(598.765625 0)"/>
     <use xlink:href="#DejaVuSans-4f" transform="translate(662.25 0)"/>
     <use xlink:href="#DejaVuSans-58" transform="translate(690.03125 0)"/>
     <use xlink:href="#DejaVuSans-3" transform="translate(753.40625 0)"/>
     <use xlink:href="#DejaVuSans-56" transform="translate(785.1875 0)"/>
     <use xlink:href="#DejaVuSans-48" transform="translate(837.28125 0)"/>
     <use xlink:href="#DejaVuSans-5c" transform="translate(898.8125 0)"/>
     <use xlink:href="#DejaVuSans-55" transform="translate(958 0)"/>
     <use xlink:href="#DejaVuSans-48" transform="translate(996.90625 0)"/>
     <use xlink:href="#DejaVuSans-4e" transform="translate(1058.4375 0)"/>
     <use xlink:href="#DejaVuSans-3" transform="translate(1116.34375 0)"/>
    </g>
   </g>
   <g id="text_17">
    <!-- S12 -->
    <g style="fill: #ffffff" transform="translate(35.71875 296.496855) scale(0.09 -0.09)">
     <use xlink:href="#DejaVuSans-Bold-36"/>
     <use xlink:href="#DejaVuSans-Bold-14" transform="translate(72.015625 0)"/>
     <use xlink:href="#DejaVuSans-Bold-15" transform="translate(141.59375 0)"/>
    </g>
   </g>
   <g id="text_18">
    <!-- Salur Kazan'ın tutsak  -->
    <g style="fill: #2a2622" transform="translate(7.2 315.477871) scale(0.07 -0.07)">
     <use xlink:href="#DejaVuSans-36"/>
     <use xlink:href="#DejaVuSans-44" transform="translate(63.484375 0)"/>
     <use xlink:href="#DejaVuSans-4f" transform="translate(124.765625 0)"/>
     <use xlink:href="#DejaVuSans-58" transform="translate(152.546875 0)"/>
     <use xlink:href="#DejaVuSans-55" transform="translate(215.921875 0)"/>
     <use xlink:href="#DejaVuSans-3" transform="translate(257.03125 0)"/>
     <use xlink:href="#DejaVuSans-2e" transform="translate(288.8125 0)"/>
     <use xlink:href="#DejaVuSans-44" transform="translate(352.640625 0)"/>
     <use xlink:href="#DejaVuSans-5d" transform="translate(413.921875 0)"/>
     <use xlink:href="#DejaVuSans-44" transform="translate(466.40625 0)"/>
     <use xlink:href="#DejaVuSans-51" transform="translate(527.6875 0)"/>
     <use xlink:href="#DejaVuSans-a" transform="translate(591.0625 0)"/>
     <use xlink:href="#DejaVuSans-f3" transform="translate(618.546875 0)"/>
     <use xlink:href="#DejaVuSans-51" transform="translate(646.328125 0)"/>
     <use xlink:href="#DejaVuSans-3" transform="translate(709.703125 0)"/>
     <use xlink:href="#DejaVuSans-57" transform="translate(741.484375 0)"/>
     <use xlink:href="#DejaVuSans-58" transform="translate(780.6875 0)"/>
     <use xlink:href="#DejaVuSans-57" transform="translate(844.0625 0)"/>
     <use xlink:href="#DejaVuSans-56" transform="translate(883.265625 0)"/>
     <use xlink:href="#DejaVuSans-44" transform="translate(935.359375 0)"/>
     <use xlink:href="#DejaVuSans-4e" transform="translate(996.640625 0)"/>
     <use xlink:href="#DejaVuSans-3" transform="translate(1054.546875 0)"/>
    </g>
   </g>
   <g id="text_19">
    <!-- S13 -->
    <g style="fill: #ffffff" transform="translate(300.933899 535.37445) scale(0.09 -0.09)">
     <use xlink:href="#DejaVuSans-Bold-36"/>
     <use xlink:href="#DejaVuSans-Bold-14" transform="translate(72.015625 0)"/>
     <use xlink:href="#DejaVuSans-Bold-16" transform="translate(141.59375 0)"/>
    </g>
   </g>
   <g id="text_20">
    <!-- İç Oğuz'a Dış Oğuz'un  -->
    <g style="fill: #2a2622" transform="translate(270.970306 555.434996) scale(0.07 -0.07)">
     <defs>
      <path id="DejaVuSans-f2" d="M 628 4666 
L 1259 4666 
L 1259 0 
L 628 0 
L 628 4666 
z
M 628 5850 
L 1266 5850 
L 1266 5210 
L 628 5210 
L 628 5850 
z
" transform="scale(0.015625)"/>
     </defs>
     <use xlink:href="#DejaVuSans-f2"/>
     <use xlink:href="#DejaVuSans-a9" transform="translate(29.5 0)"/>
     <use xlink:href="#DejaVuSans-3" transform="translate(84.484375 0)"/>
     <use xlink:href="#DejaVuSans-32" transform="translate(116.265625 0)"/>
     <use xlink:href="#DejaVuSans-e1" transform="translate(194.984375 0)"/>
     <use xlink:href="#DejaVuSans-58" transform="translate(258.46875 0)"/>
     <use xlink:href="#DejaVuSans-5d" transform="translate(321.84375 0)"/>
     <use xlink:href="#DejaVuSans-a" transform="translate(374.328125 0)"/>
     <use xlink:href="#DejaVuSans-44" transform="translate(401.8125 0)"/>
     <use xlink:href="#DejaVuSans-3" transform="translate(463.09375 0)"/>
     <use xlink:href="#DejaVuSans-27" transform="translate(494.875 0)"/>
     <use xlink:href="#DejaVuSans-f3" transform="translate(571.875 0)"/>
     <use xlink:href="#DejaVuSans-121" transform="translate(599.65625 0)"/>
     <use xlink:href="#DejaVuSans-3" transform="translate(651.75 0)"/>
     <use xlink:href="#DejaVuSans-32" transform="translate(683.53125 0)"/>
     <use xlink:href="#DejaVuSans-e1" transform="translate(762.25 0)"/>
     <use xlink:href="#DejaVuSans-58" transform="translate(825.734375 0)"/>
     <use xlink:href="#DejaVuSans-5d" transform="translate(889.109375 0)"/>
     <use xlink:href="#DejaVuSans-a" transform="translate(941.59375 0)"/>
     <use xlink:href="#DejaVuSans-58" transform="translate(969.078125 0)"/>
     <use xlink:href="#DejaVuSans-51" transform="translate(1032.453125 0)"/>
     <use xlink:href="#DejaVuSans-3" transform="translate(1095.828125 0)"/>
    </g>
   </g>
   <g id="text_21">
    <!-- S14 -->
    <g style="fill: #ffffff" transform="translate(462.726367 506.351328) scale(0.09 -0.09)">
     <use xlink:href="#DejaVuSans-Bold-36"/>
     <use xlink:href="#DejaVuSans-Bold-14" transform="translate(72.015625 0)"/>
     <use xlink:href="#DejaVuSans-Bold-17" transform="translate(141.59375 0)"/>
    </g>
   </g>
   <g id="text_22">
    <!-- 13. Boy: Salur Kazan'ı -->
    <g style="fill: #2a2622" transform="translate(434.278164 525.332344) scale(0.07 -0.07)">
     <defs>
      <path id="DejaVuSans-14" d="M 794 531 
L 1825 531 
L 1825 4091 
L 703 3866 
L 703 4441 
L 1819 4666 
L 2450 4666 
L 2450 531 
L 3481 531 
L 3481 0 
L 794 0 
L 794 531 
z
" transform="scale(0.015625)"/>
      <path id="DejaVuSans-16" d="M 2597 2516 
Q 3050 2419 3304 2112 
Q 3559 1806 3559 1356 
Q 3559 666 3084 287 
Q 2609 -91 1734 -91 
Q 1441 -91 1130 -33 
Q 819 25 488 141 
L 488 750 
Q 750 597 1062 519 
Q 1375 441 1716 441 
Q 2309 441 2620 675 
Q 2931 909 2931 1356 
Q 2931 1769 2642 2001 
Q 2353 2234 1838 2234 
L 1294 2234 
L 1294 2753 
L 1863 2753 
Q 2328 2753 2575 2939 
Q 2822 3125 2822 3475 
Q 2822 3834 2567 4026 
Q 2313 4219 1838 4219 
Q 1578 4219 1281 4162 
Q 984 4106 628 3988 
L 628 4550 
Q 988 4650 1302 4700 
Q 1616 4750 1894 4750 
Q 2613 4750 3031 4423 
Q 3450 4097 3450 3541 
Q 3450 3153 3228 2886 
Q 3006 2619 2597 2516 
z
" transform="scale(0.015625)"/>
      <path id="DejaVuSans-11" d="M 684 794 
L 1344 794 
L 1344 0 
L 684 0 
L 684 794 
z
" transform="scale(0.015625)"/>
      <path id="DejaVuSans-1d" d="M 750 794 
L 1409 794 
L 1409 0 
L 750 0 
L 750 794 
z
M 750 3309 
L 1409 3309 
L 1409 2516 
L 750 2516 
L 750 3309 
z
" transform="scale(0.015625)"/>
     </defs>
     <use xlink:href="#DejaVuSans-14"/>
     <use xlink:href="#DejaVuSans-16" transform="translate(63.625 0)"/>
     <use xlink:href="#DejaVuSans-11" transform="translate(127.25 0)"/>
     <use xlink:href="#DejaVuSans-3" transform="translate(159.03125 0)"/>
     <use xlink:href="#DejaVuSans-25" transform="translate(190.8125 0)"/>
     <use xlink:href="#DejaVuSans-52" transform="translate(259.421875 0)"/>
     <use xlink:href="#DejaVuSans-5c" transform="translate(320.609375 0)"/>
     <use xlink:href="#DejaVuSans-1d" transform="translate(372.515625 0)"/>
     <use xlink:href="#DejaVuSans-3" transform="translate(406.203125 0)"/>
     <use xlink:href="#DejaVuSans-36" transform="translate(437.984375 0)"/>
     <use xlink:href="#DejaVuSans-44" transform="translate(501.46875 0)"/>
     <use xlink:href="#DejaVuSans-4f" transform="translate(562.75 0)"/>
     <use xlink:href="#DejaVuSans-58" transform="translate(590.53125 0)"/>
     <use xlink:href="#DejaVuSans-55" transform="translate(653.90625 0)"/>
     <use xlink:href="#DejaVuSans-3" transform="translate(695.015625 0)"/>
     <use xlink:href="#DejaVuSans-2e" transform="translate(726.796875 0)"/>
     <use xlink:href="#DejaVuSans-44" transform="translate(790.625 0)"/>
     <use xlink:href="#DejaVuSans-5d" transform="translate(851.90625 0)"/>
     <use xlink:href="#DejaVuSans-44" transform="translate(904.390625 0)"/>
     <use xlink:href="#DejaVuSans-51" transform="translate(965.671875 0)"/>
     <use xlink:href="#DejaVuSans-a" transform="translate(1029.046875 0)"/>
     <use xlink:href="#DejaVuSans-f3" transform="translate(1056.53125 0)"/>
    </g>
   </g>
   <g id="text_23">
    <!-- F11 — Story Similarity Network (top 15 of 91 pairs by Actor Jaccard) -->
    <g transform="translate(82.090028 16.318125) scale(0.12 -0.12)">
     <defs>
      <path id="DejaVuSans-Bold-29" d="M 588 4666 
L 3834 4666 
L 3834 3756 
L 1791 3756 
L 1791 2888 
L 3713 2888 
L 3713 1978 
L 1791 1978 
L 1791 0 
L 588 0 
L 588 4666 
z
" transform="scale(0.015625)"/>
      <path id="DejaVuSans-Bold-3" transform="scale(0.015625)"/>
      <path id="DejaVuSans-Bold-af6" d="M 344 2156 
L 6056 2156 
L 6056 1350 
L 344 1350 
L 344 2156 
z
" transform="scale(0.015625)"/>
      <path id="DejaVuSans-Bold-57" d="M 1759 4494 
L 1759 3500 
L 2913 3500 
L 2913 2700 
L 1759 2700 
L 1759 1216 
Q 1759 972 1856 886 
Q 1953 800 2241 800 
L 2816 800 
L 2816 0 
L 1856 0 
Q 1194 0 917 276 
Q 641 553 641 1216 
L 641 2700 
L 84 2700 
L 84 3500 
L 641 3500 
L 641 4494 
L 1759 4494 
z
" transform="scale(0.015625)"/>
      <path id="DejaVuSans-Bold-52" d="M 2203 2784 
Q 1831 2784 1636 2517 
Q 1441 2250 1441 1747 
Q 1441 1244 1636 976 
Q 1831 709 2203 709 
Q 2569 709 2762 976 
Q 2956 1244 2956 1747 
Q 2956 2250 2762 2517 
Q 2569 2784 2203 2784 
z
M 2203 3584 
Q 3106 3584 3614 3096 
Q 4122 2609 4122 1747 
Q 4122 884 3614 396 
Q 3106 -91 2203 -91 
Q 1297 -91 786 396 
Q 275 884 275 1747 
Q 275 2609 786 3096 
Q 1297 3584 2203 3584 
z
" transform="scale(0.015625)"/>
      <path id="DejaVuSans-Bold-55" d="M 3138 2547 
Q 2991 2616 2845 2648 
Q 2700 2681 2553 2681 
Q 2122 2681 1889 2404 
Q 1656 2128 1656 1613 
L 1656 0 
L 538 0 
L 538 3500 
L 1656 3500 
L 1656 2925 
Q 1872 3269 2151 3426 
Q 2431 3584 2822 3584 
Q 2878 3584 2943 3579 
Q 3009 3575 3134 3559 
L 3138 2547 
z
" transform="scale(0.015625)"/>
      <path id="DejaVuSans-Bold-5c" d="M 78 3500 
L 1197 3500 
L 2138 1125 
L 2938 3500 
L 4056 3500 
L 2584 -331 
Q 2363 -916 2067 -1148 
Q 1772 -1381 1288 -1381 
L 641 -1381 
L 641 -647 
L 991 -647 
Q 1275 -647 1404 -556 
Q 1534 -466 1606 -231 
L 1638 -134 
L 78 3500 
z
" transform="scale(0.015625)"/>
      <path id="DejaVuSans-Bold-4c" d="M 538 3500 
L 1656 3500 
L 1656 0 
L 538 0 
L 538 3500 
z
M 538 4863 
L 1656 4863 
L 1656 3950 
L 538 3950 
L 538 4863 
z
" transform="scale(0.015625)"/>
      <path id="DejaVuSans-Bold-50" d="M 3781 2919 
Q 3994 3244 4286 3414 
Q 4578 3584 4928 3584 
Q 5531 3584 5847 3212 
Q 6163 2841 6163 2131 
L 6163 0 
L 5038 0 
L 5038 1825 
Q 5041 1866 5042 1909 
Q 5044 1953 5044 2034 
Q 5044 2406 4934 2573 
Q 4825 2741 4581 2741 
Q 4263 2741 4089 2478 
Q 3916 2216 3909 1719 
L 3909 0 
L 2784 0 
L 2784 1825 
Q 2784 2406 2684 2573 
Q 2584 2741 2328 2741 
Q 2006 2741 1831 2477 
Q 1656 2213 1656 1722 
L 1656 0 
L 531 0 
L 531 3500 
L 1656 3500 
L 1656 2988 
Q 1863 3284 2130 3434 
Q 2397 3584 2719 3584 
Q 3081 3584 3359 3409 
Q 3638 3234 3781 2919 
z
" transform="scale(0.015625)"/>
      <path id="DejaVuSans-Bold-4f" d="M 538 4863 
L 1656 4863 
L 1656 0 
L 538 0 
L 538 4863 
z
" transform="scale(0.015625)"/>
      <path id="DejaVuSans-Bold-44" d="M 2106 1575 
Q 1756 1575 1579 1456 
Q 1403 1338 1403 1106 
Q 1403 894 1545 773 
Q 1688 653 1941 653 
Q 2256 653 2472 879 
Q 2688 1106 2688 1447 
L 2688 1575 
L 2106 1575 
z
M 3816 1997 
L 3816 0 
L 2688 0 
L 2688 519 
Q 2463 200 2181 54 
Q 1900 -91 1497 -91 
Q 953 -91 614 226 
Q 275 544 275 1050 
Q 275 1666 698 1953 
Q 1122 2241 2028 2241 
L 2688 2241 
L 2688 2328 
Q 2688 2594 2478 2717 
Q 2269 2841 1825 2841 
Q 1466 2841 1156 2769 
Q 847 2697 581 2553 
L 581 3406 
Q 941 3494 1303 3539 
Q 1666 3584 2028 3584 
Q 2975 3584 3395 3211 
Q 3816 2838 3816 1997 
z
" transform="scale(0.015625)"/>
      <path id="DejaVuSans-Bold-31" d="M 588 4666 
L 1931 4666 
L 3628 1466 
L 3628 4666 
L 4769 4666 
L 4769 0 
L 3425 0 
L 1728 3200 
L 1728 0 
L 588 0 
L 588 4666 
z
" transform="scale(0.015625)"/>
      <path id="DejaVuSans-Bold-48" d="M 4031 1759 
L 4031 1441 
L 1416 1441 
Q 1456 1047 1700 850 
Q 1944 653 2381 653 
Q 2734 653 3104 758 
Q 3475 863 3866 1075 
L 3866 213 
Q 3469 63 3072 -14 
Q 2675 -91 2278 -91 
Q 1328 -91 801 392 
Q 275 875 275 1747 
Q 275 2603 792 3093 
Q 1309 3584 2216 3584 
Q 3041 3584 3536 3087 
Q 4031 2591 4031 1759 
z
M 2881 2131 
Q 2881 2450 2695 2645 
Q 2509 2841 2209 2841 
Q 1884 2841 1681 2658 
Q 1478 2475 1428 2131 
L 2881 2131 
z
" transform="scale(0.015625)"/>
      <path id="DejaVuSans-Bold-5a" d="M 225 3500 
L 1313 3500 
L 1900 1088 
L 2491 3500 
L 3425 3500 
L 4013 1113 
L 4603 3500 
L 5691 3500 
L 4769 0 
L 3547 0 
L 2956 2406 
L 2369 0 
L 1147 0 
L 225 3500 
z
" transform="scale(0.015625)"/>
      <path id="DejaVuSans-Bold-4e" d="M 538 4863 
L 1656 4863 
L 1656 2216 
L 2944 3500 
L 4244 3500 
L 2534 1894 
L 4378 0 
L 3022 0 
L 1656 1459 
L 1656 0 
L 538 0 
L 538 4863 
z
" transform="scale(0.015625)"/>
      <path id="DejaVuSans-Bold-b" d="M 2413 -844 
L 1484 -844 
Q 1006 -72 778 623 
Q 550 1319 550 2003 
Q 550 2688 779 3389 
Q 1009 4091 1484 4856 
L 2413 4856 
Q 2013 4116 1813 3408 
Q 1613 2700 1613 2009 
Q 1613 1319 1811 609 
Q 2009 -100 2413 -844 
z
" transform="scale(0.015625)"/>
      <path id="DejaVuSans-Bold-53" d="M 1656 506 
L 1656 -1331 
L 538 -1331 
L 538 3500 
L 1656 3500 
L 1656 2988 
Q 1888 3294 2169 3439 
Q 2450 3584 2816 3584 
Q 3463 3584 3878 3070 
Q 4294 2556 4294 1747 
Q 4294 938 3878 423 
Q 3463 -91 2816 -91 
Q 2450 -91 2169 54 
Q 1888 200 1656 506 
z
M 2400 2772 
Q 2041 2772 1848 2508 
Q 1656 2244 1656 1747 
Q 1656 1250 1848 986 
Q 2041 722 2400 722 
Q 2759 722 2948 984 
Q 3138 1247 3138 1747 
Q 3138 2247 2948 2509 
Q 2759 2772 2400 2772 
z
" transform="scale(0.015625)"/>
      <path id="DejaVuSans-Bold-49" d="M 2841 4863 
L 2841 4128 
L 2222 4128 
Q 1984 4128 1890 4042 
Q 1797 3956 1797 3744 
L 1797 3500 
L 2753 3500 
L 2753 2700 
L 1797 2700 
L 1797 0 
L 678 0 
L 678 2700 
L 122 2700 
L 122 3500 
L 678 3500 
L 678 3744 
Q 678 4316 997 4589 
Q 1316 4863 1984 4863 
L 2841 4863 
z
" transform="scale(0.015625)"/>
      <path id="DejaVuSans-Bold-56" d="M 3272 3391 
L 3272 2541 
Q 2913 2691 2578 2766 
Q 2244 2841 1947 2841 
Q 1628 2841 1473 2761 
Q 1319 2681 1319 2516 
Q 1319 2381 1436 2309 
Q 1553 2238 1856 2203 
L 2053 2175 
Q 2913 2066 3209 1816 
Q 3506 1566 3506 1031 
Q 3506 472 3093 190 
Q 2681 -91 1863 -91 
Q 1516 -91 1145 -36 
Q 775 19 384 128 
L 384 978 
Q 719 816 1070 734 
Q 1422 653 1784 653 
Q 2113 653 2278 743 
Q 2444 834 2444 1013 
Q 2444 1163 2330 1236 
Q 2216 1309 1875 1350 
L 1678 1375 
Q 931 1469 631 1722 
Q 331 1975 331 2491 
Q 331 3047 712 3315 
Q 1094 3584 1881 3584 
Q 2191 3584 2531 3537 
Q 2872 3491 3272 3391 
z
" transform="scale(0.015625)"/>
      <path id="DejaVuSans-Bold-45" d="M 2400 722 
Q 2759 722 2948 984 
Q 3138 1247 3138 1747 
Q 3138 2247 2948 2509 
Q 2759 2772 2400 2772 
Q 2041 2772 1848 2508 
Q 1656 2244 1656 1747 
Q 1656 1250 1848 986 
Q 2041 722 2400 722 
z
M 1656 2988 
Q 1888 3294 2169 3439 
Q 2450 3584 2816 3584 
Q 3463 3584 3878 3070 
Q 4294 2556 4294 1747 
Q 4294 938 3878 423 
Q 3463 -91 2816 -91 
Q 2450 -91 2169 54 
Q 1888 200 1656 506 
L 1656 0 
L 538 0 
L 538 4863 
L 1656 4863 
L 1656 2988 
z
" transform="scale(0.015625)"/>
      <path id="DejaVuSans-Bold-24" d="M 3419 850 
L 1538 850 
L 1241 0 
L 31 0 
L 1759 4666 
L 3194 4666 
L 4922 0 
L 3713 0 
L 3419 850 
z
M 1838 1716 
L 3116 1716 
L 2478 3572 
L 1838 1716 
z
" transform="scale(0.015625)"/>
      <path id="DejaVuSans-Bold-46" d="M 3366 3391 
L 3366 2478 
Q 3138 2634 2908 2709 
Q 2678 2784 2431 2784 
Q 1963 2784 1702 2511 
Q 1441 2238 1441 1747 
Q 1441 1256 1702 982 
Q 1963 709 2431 709 
Q 2694 709 2930 787 
Q 3166 866 3366 1019 
L 3366 103 
Q 3103 6 2833 -42 
Q 2563 -91 2291 -91 
Q 1344 -91 809 395 
Q 275 881 275 1747 
Q 275 2613 809 3098 
Q 1344 3584 2291 3584 
Q 2566 3584 2833 3536 
Q 3100 3488 3366 3391 
z
" transform="scale(0.015625)"/>
      <path id="DejaVuSans-Bold-2d" d="M 588 4666 
L 1791 4666 
L 1791 453 
Q 1791 -419 1317 -850 
Q 844 -1281 -116 -1281 
L -359 -1281 
L -359 -372 
L -172 -372 
Q 203 -372 395 -162 
Q 588 47 588 453 
L 588 4666 
z
" transform="scale(0.015625)"/>
      <path id="DejaVuSans-Bold-47" d="M 2919 2988 
L 2919 4863 
L 4044 4863 
L 4044 0 
L 2919 0 
L 2919 506 
Q 2688 197 2409 53 
Q 2131 -91 1766 -91 
Q 1119 -91 703 423 
Q 288 938 288 1747 
Q 288 2556 703 3070 
Q 1119 3584 1766 3584 
Q 2128 3584 2408 3439 
Q 2688 3294 2919 2988 
z
M 2181 722 
Q 2541 722 2730 984 
Q 2919 1247 2919 1747 
Q 2919 2247 2730 2509 
Q 2541 2772 2181 2772 
Q 1825 2772 1636 2509 
Q 1447 2247 1447 1747 
Q 1447 1247 1636 984 
Q 1825 722 2181 722 
z
" transform="scale(0.015625)"/>
      <path id="DejaVuSans-Bold-c" d="M 513 -844 
Q 913 -100 1113 609 
Q 1313 1319 1313 2009 
Q 1313 2700 1113 3408 
Q 913 4116 513 4856 
L 1441 4856 
Q 1916 4091 2145 3389 
Q 2375 2688 2375 2003 
Q 2375 1319 2147 623 
Q 1919 -72 1441 -844 
L 513 -844 
z
" transform="scale(0.015625)"/>
     </defs>
     <use xlink:href="#DejaVuSans-Bold-29"/>
     <use xlink:href="#DejaVuSans-Bold-14" transform="translate(68.3125 0)"/>
     <use xlink:href="#DejaVuSans-Bold-14" transform="translate(137.890625 0)"/>
     <use xlink:href="#DejaVuSans-Bold-3" transform="translate(207.46875 0)"/>
     <use xlink:href="#DejaVuSans-Bold-af6" transform="translate(242.28125 0)"/>
     <use xlink:href="#DejaVuSans-Bold-3" transform="translate(342.28125 0)"/>
     <use xlink:href="#DejaVuSans-Bold-36" transform="translate(377.09375 0)"/>
     <use xlink:href="#DejaVuSans-Bold-57" transform="translate(449.109375 0)"/>
     <use xlink:href="#DejaVuSans-Bold-52" transform="translate(496.90625 0)"/>
     <use xlink:href="#DejaVuSans-Bold-55" transform="translate(565.609375 0)"/>
     <use xlink:href="#DejaVuSans-Bold-5c" transform="translate(614.921875 0)"/>
     <use xlink:href="#DejaVuSans-Bold-3" transform="translate(680.109375 0)"/>
     <use xlink:href="#DejaVuSans-Bold-36" transform="translate(714.921875 0)"/>
     <use xlink:href="#DejaVuSans-Bold-4c" transform="translate(786.9375 0)"/>
     <use xlink:href="#DejaVuSans-Bold-50" transform="translate(821.21875 0)"/>
     <use xlink:href="#DejaVuSans-Bold-4c" transform="translate(925.421875 0)"/>
     <use xlink:href="#DejaVuSans-Bold-4f" transform="translate(959.703125 0)"/>
     <use xlink:href="#DejaVuSans-Bold-44" transform="translate(993.984375 0)"/>
     <use xlink:href="#DejaVuSans-Bold-55" transform="translate(1061.46875 0)"/>
     <use xlink:href="#DejaVuSans-Bold-4c" transform="translate(1110.78125 0)"/>
     <use xlink:href="#DejaVuSans-Bold-57" transform="translate(1145.0625 0)"/>
     <use xlink:href="#DejaVuSans-Bold-5c" transform="translate(1192.859375 0)"/>
     <use xlink:href="#DejaVuSans-Bold-3" transform="translate(1258.046875 0)"/>
     <use xlink:href="#DejaVuSans-Bold-31" transform="translate(1292.859375 0)"/>
     <use xlink:href="#DejaVuSans-Bold-48" transform="translate(1376.546875 0)"/>
     <use xlink:href="#DejaVuSans-Bold-57" transform="translate(1444.375 0)"/>
     <use xlink:href="#DejaVuSans-Bold-5a" transform="translate(1492.171875 0)"/>
     <use xlink:href="#DejaVuSans-Bold-52" transform="translate(1584.5625 0)"/>
     <use xlink:href="#DejaVuSans-Bold-55" transform="translate(1653.265625 0)"/>
     <use xlink:href="#DejaVuSans-Bold-4e" transform="translate(1702.578125 0)"/>
     <use xlink:href="#DejaVuSans-Bold-3" transform="translate(1769.078125 0)"/>
     <use xlink:href="#DejaVuSans-Bold-b" transform="translate(1803.890625 0)"/>
     <use xlink:href="#DejaVuSans-Bold-57" transform="translate(1849.59375 0)"/>
     <use xlink:href="#DejaVuSans-Bold-52" transform="translate(1897.390625 0)"/>
     <use xlink:href="#DejaVuSans-Bold-53" transform="translate(1966.09375 0)"/>
     <use xlink:href="#DejaVuSans-Bold-3" transform="translate(2037.671875 0)"/>
     <use xlink:href="#DejaVuSans-Bold-14" transform="translate(2072.484375 0)"/>
     <use xlink:href="#DejaVuSans-Bold-18" transform="translate(2142.0625 0)"/>
     <use xlink:href="#DejaVuSans-Bold-3" transform="translate(2211.640625 0)"/>
     <use xlink:href="#DejaVuSans-Bold-52" transform="translate(2246.453125 0)"/>
     <use xlink:href="#DejaVuSans-Bold-49" transform="translate(2315.15625 0)"/>
     <use xlink:href="#DejaVuSans-Bold-3" transform="translate(2358.65625 0)"/>
     <use xlink:href="#DejaVuSans-Bold-1c" transform="translate(2393.46875 0)"/>
     <use xlink:href="#DejaVuSans-Bold-14" transform="translate(2463.046875 0)"/>
     <use xlink:href="#DejaVuSans-Bold-3" transform="translate(2532.625 0)"/>
     <use xlink:href="#DejaVuSans-Bold-53" transform="translate(2567.4375 0)"/>
     <use xlink:href="#DejaVuSans-Bold-44" transform="translate(2639.015625 0)"/>
     <use xlink:href="#DejaVuSans-Bold-4c" transform="translate(2706.5 0)"/>
     <use xlink:href="#DejaVuSans-Bold-55" transform="translate(2740.78125 0)"/>
     <use xlink:href="#DejaVuSans-Bold-56" transform="translate(2790.09375 0)"/>
     <use xlink:href="#DejaVuSans-Bold-3" transform="translate(2849.609375 0)"/>
     <use xlink:href="#DejaVuSans-Bold-45" transform="translate(2884.421875 0)"/>
     <use xlink:href="#DejaVuSans-Bold-5c" transform="translate(2956 0)"/>
     <use xlink:href="#DejaVuSans-Bold-3" transform="translate(3021.1875 0)"/>
     <use xlink:href="#DejaVuSans-Bold-24" transform="translate(3056 0)"/>
     <use xlink:href="#DejaVuSans-Bold-46" transform="translate(3133.390625 0)"/>
     <use xlink:href="#DejaVuSans-Bold-57" transform="translate(3192.671875 0)"/>
     <use xlink:href="#DejaVuSans-Bold-52" transform="translate(3240.46875 0)"/>
     <use xlink:href="#DejaVuSans-Bold-55" transform="translate(3309.171875 0)"/>
     <use xlink:href="#DejaVuSans-Bold-3" transform="translate(3358.484375 0)"/>
     <use xlink:href="#DejaVuSans-Bold-2d" transform="translate(3393.296875 0)"/>
     <use xlink:href="#DejaVuSans-Bold-44" transform="translate(3430.5 0)"/>
     <use xlink:href="#DejaVuSans-Bold-46" transform="translate(3497.984375 0)"/>
     <use xlink:href="#DejaVuSans-Bold-46" transform="translate(3557.265625 0)"/>
     <use xlink:href="#DejaVuSans-Bold-44" transform="translate(3616.546875 0)"/>
     <use xlink:href="#DejaVuSans-Bold-55" transform="translate(3684.03125 0)"/>
     <use xlink:href="#DejaVuSans-Bold-47" transform="translate(3733.34375 0)"/>
     <use xlink:href="#DejaVuSans-Bold-c" transform="translate(3804.921875 0)"/>
    </g>
   </g>
  </g>
 </g>
 <defs>
  <clipPath id="pb872c4aa20">
   <rect x="18.43088" y="22.318125" width="589.393295" height="535.038359"/>
  </clipPath>
 </defs>
</svg>
